<?xml version="1.0" encoding="utf-8"?>
<!-- Generator: Adobe Illustrator 16.0.0, SVG Export Plug-In . SVG Version: 6.00 Build 0)  -->
<!DOCTYPE svg PUBLIC "-//W3C//DTD SVG 1.1//EN" "http://www.w3.org/Graphics/SVG/1.1/DTD/svg11.dtd">
<svg version="1.1" id="Layer_2" xmlns="http://www.w3.org/2000/svg" xmlns:xlink="http://www.w3.org/1999/xlink" x="0px" y="0px"
	 width="250px" height="250px" viewBox="0 0 250 250" enable-background="new 0 0 250 250" xml:space="preserve">
<rect x="-15.789" y="-20.289" fill="#F89B1C" width="293" height="293.289"/>
<g>
	<defs>
		<rect id="SVGID_1_" width="250" height="250"/>
	</defs>
	<clipPath id="SVGID_2_">
		<use xlink:href="#SVGID_1_"  overflow="visible"/>
	</clipPath>
	<linearGradient id="SVGID_3_" gradientUnits="userSpaceOnUse" x1="79.0728" y1="95.2881" x2="209.1191" y2="240.2444">
		<stop  offset="0" style="stop-color:#C47618"/>
		<stop  offset="0.2694" style="stop-color:#C87918"/>
		<stop  offset="0.5568" style="stop-color:#D58219"/>
		<stop  offset="0.8517" style="stop-color:#EA911B"/>
		<stop  offset="1" style="stop-color:#F89B1C"/>
	</linearGradient>
	<path clip-path="url(#SVGID_2_)" fill="url(#SVGID_3_)" d="M118.387,132.876c-38.882,3.05-69.4,32.702-69.4,68.852l200,200h152.027
		c0-22.348-11.672-42.206-29.762-54.842c-4.828-7.004-10.995-13.162-18.181-18.182c-2.687-3.896-5.788-7.527-9.249-10.851
		c11.182-6.433,18.717-18.49,18.717-32.316c0-14.993-8.858-27.911-21.624-33.824L159.097,69.896
		c-5.913-12.765-18.829-21.624-33.823-21.624c-20.581,0-37.265,16.685-37.265,37.266c0,9.055,3.231,17.352,8.602,23.807
		L118.387,132.876z"/>
</g>
<g>
	<circle fill="#FFFFFF" cx="125.274" cy="85.538" r="37.265"/>
	<path fill="#FFFFFF" d="M48.987,201.728c0-38.178,34.033-69.127,76.013-69.127s76.014,30.949,76.014,69.127H48.987z"/>
</g>
</svg>
